<mxfile host="app.diagrams.net" modified="2022-10-31T06:57:32.690Z" agent="5.0 (Windows NT 10.0; Win64; x64) AppleWebKit/537.36 (KHTML, like Gecko) Chrome/106.0.0.0 Safari/537.36" etag="aNaI4DTKzrCV6ipHaE1G" version="20.4.1" type="github">
  <diagram id="cAbJ7RE4t0ztQyKBYbv4" name="第 1 页">
    <mxGraphModel dx="694" dy="403" grid="1" gridSize="10" guides="1" tooltips="1" connect="1" arrows="1" fold="1" page="1" pageScale="1" pageWidth="827" pageHeight="1169" math="0" shadow="0">
      <root>
        <mxCell id="0" />
        <mxCell id="1" parent="0" />
        <mxCell id="Zz7yHoWNCV6439r8U1kF-16" value="" style="verticalLabelPosition=bottom;verticalAlign=top;html=1;shape=mxgraph.basic.rect;fillColor2=none;strokeWidth=1;size=20;indent=5;" vertex="1" parent="1">
          <mxGeometry x="720" y="560" width="140" height="300" as="geometry" />
        </mxCell>
        <mxCell id="Zz7yHoWNCV6439r8U1kF-17" value="Big data" style="text;html=1;strokeColor=#6c8ebf;fillColor=#dae8fc;align=center;verticalAlign=middle;whiteSpace=wrap;rounded=0;" vertex="1" parent="1">
          <mxGeometry x="750" y="570" width="80" height="30" as="geometry" />
        </mxCell>
        <mxCell id="Zz7yHoWNCV6439r8U1kF-18" value="NO Physics" style="text;html=1;strokeColor=#b85450;fillColor=#f8cecc;align=center;verticalAlign=middle;whiteSpace=wrap;rounded=0;" vertex="1" parent="1">
          <mxGeometry x="735" y="820" width="110" height="30" as="geometry" />
        </mxCell>
        <mxCell id="Zz7yHoWNCV6439r8U1kF-13" value="" style="verticalLabelPosition=bottom;verticalAlign=top;html=1;shape=mxgraph.basic.rect;fillColor2=none;strokeWidth=1;size=20;indent=5;" vertex="1" parent="1">
          <mxGeometry x="500" y="560" width="140" height="300" as="geometry" />
        </mxCell>
        <mxCell id="Zz7yHoWNCV6439r8U1kF-14" value="Some data" style="text;html=1;strokeColor=#6c8ebf;fillColor=#dae8fc;align=center;verticalAlign=middle;whiteSpace=wrap;rounded=0;" vertex="1" parent="1">
          <mxGeometry x="530" y="570" width="80" height="30" as="geometry" />
        </mxCell>
        <mxCell id="Zz7yHoWNCV6439r8U1kF-15" value="Some Physics" style="text;html=1;strokeColor=#b85450;fillColor=#f8cecc;align=center;verticalAlign=middle;whiteSpace=wrap;rounded=0;" vertex="1" parent="1">
          <mxGeometry x="515" y="820" width="110" height="30" as="geometry" />
        </mxCell>
        <mxCell id="Zz7yHoWNCV6439r8U1kF-6" value="" style="verticalLabelPosition=bottom;verticalAlign=top;html=1;shape=mxgraph.basic.rect;fillColor2=none;strokeWidth=1;size=20;indent=5;" vertex="1" parent="1">
          <mxGeometry x="290" y="560" width="140" height="300" as="geometry" />
        </mxCell>
        <mxCell id="Zz7yHoWNCV6439r8U1kF-1" value="" style="shape=flexArrow;endArrow=classic;html=1;rounded=0;width=22;endSize=16.972;endWidth=59.6;fillColor=#dae8fc;strokeColor=#6c8ebf;" edge="1" parent="1">
          <mxGeometry width="50" height="50" relative="1" as="geometry">
            <mxPoint x="320" y="640" as="sourcePoint" />
            <mxPoint x="830" y="640" as="targetPoint" />
          </mxGeometry>
        </mxCell>
        <mxCell id="Zz7yHoWNCV6439r8U1kF-2" value="" style="shape=flexArrow;endArrow=classic;html=1;rounded=0;width=22;endSize=16.972;endWidth=59.6;fillColor=#f8cecc;strokeColor=#b85450;" edge="1" parent="1">
          <mxGeometry width="50" height="50" relative="1" as="geometry">
            <mxPoint x="840.3678104795258" y="760" as="sourcePoint" />
            <mxPoint x="320" y="760" as="targetPoint" />
          </mxGeometry>
        </mxCell>
        <mxCell id="Zz7yHoWNCV6439r8U1kF-8" value="Small data" style="text;html=1;strokeColor=#6c8ebf;fillColor=#dae8fc;align=center;verticalAlign=middle;whiteSpace=wrap;rounded=0;" vertex="1" parent="1">
          <mxGeometry x="320" y="570" width="80" height="30" as="geometry" />
        </mxCell>
        <mxCell id="Zz7yHoWNCV6439r8U1kF-9" value="Lots of Physics" style="text;html=1;strokeColor=#b85450;fillColor=#f8cecc;align=center;verticalAlign=middle;whiteSpace=wrap;rounded=0;" vertex="1" parent="1">
          <mxGeometry x="305" y="820" width="110" height="30" as="geometry" />
        </mxCell>
        <mxCell id="Zz7yHoWNCV6439r8U1kF-20" value="传统机器学习" style="text;html=1;strokeColor=#6c8ebf;fillColor=#dae8fc;align=center;verticalAlign=middle;whiteSpace=wrap;rounded=0;" vertex="1" parent="1">
          <mxGeometry x="745" y="690" width="90" height="30" as="geometry" />
        </mxCell>
        <mxCell id="Zz7yHoWNCV6439r8U1kF-21" value="传统物理求解器" style="text;html=1;strokeColor=#b85450;fillColor=#f8cecc;align=center;verticalAlign=middle;whiteSpace=wrap;rounded=0;" vertex="1" parent="1">
          <mxGeometry x="307.5" y="690" width="105" height="30" as="geometry" />
        </mxCell>
        <mxCell id="Zz7yHoWNCV6439r8U1kF-22" value="NN-based Oprator" style="text;html=1;strokeColor=#82b366;fillColor=#d5e8d4;align=center;verticalAlign=middle;whiteSpace=wrap;rounded=0;" vertex="1" parent="1">
          <mxGeometry x="508.75" y="690" width="122.5" height="30" as="geometry" />
        </mxCell>
      </root>
    </mxGraphModel>
  </diagram>
</mxfile>
